<svg height="2702" width="720" xmlns="http://www.w3.org/2000/svg">
<rect height="2702" fill="#555" width="720"></rect>
<text fill="#7f7" font-family="Courier New" font-size="12" xml:space="preserve">
<tspan x="10" y="26">24 megabytes installed</tspan>
<tspan x="10" y="42"></tspan>
<tspan x="10" y="58">node_modules</tspan>
<tspan x="10" y="74">└─┬ spritesmith@3.1.1 </tspan>
<tspan x="10" y="90">  ├─┬ concat-stream@1.5.2 </tspan>
<tspan x="10" y="106">  │ ├── inherits@2.0.3 </tspan>
<tspan x="10" y="122">  │ ├─┬ readable-stream@2.0.6 </tspan>
<tspan x="10" y="138">  │ │ ├── core-util-is@1.0.2 </tspan>
<tspan x="10" y="154">  │ │ ├── isarray@1.0.0 </tspan>
<tspan x="10" y="170">  │ │ ├── process-nextick-args@1.0.7 </tspan>
<tspan x="10" y="186">  │ │ ├── string_decoder@0.10.31 </tspan>
<tspan x="10" y="202">  │ │ └── util-deprecate@1.0.2 </tspan>
<tspan x="10" y="218">  │ └── typedarray@0.0.6 </tspan>
<tspan x="10" y="234">  ├─┬ layout@2.2.0 </tspan>
<tspan x="10" y="250">  │ └── bin-pack@1.0.2 </tspan>
<tspan x="10" y="266">  ├─┬ pixelsmith@2.1.1 </tspan>
<tspan x="10" y="282">  │ ├── async@0.9.2 </tspan>
<tspan x="10" y="298">  │ ├─┬ get-pixels@3.3.0 </tspan>
<tspan x="10" y="314">  │ │ ├── data-uri-to-buffer@0.0.3 </tspan>
<tspan x="10" y="330">  │ │ ├── jpeg-js@0.1.2 </tspan>
<tspan x="10" y="346">  │ │ ├─┬ ndarray-pack@1.2.1 </tspan>
<tspan x="10" y="362">  │ │ │ └─┬ cwise-compiler@1.1.2 </tspan>
<tspan x="10" y="378">  │ │ │   └── uniq@1.0.1 </tspan>
<tspan x="10" y="394">  │ │ ├── node-bitmap@0.0.1 </tspan>
<tspan x="10" y="410">  │ │ ├── omggif@1.0.8 </tspan>
<tspan x="10" y="426">  │ │ ├── parse-data-uri@0.2.0 </tspan>
<tspan x="10" y="442">  │ │ ├── pngjs@2.3.1 </tspan>
<tspan x="10" y="458">  │ │ ├─┬ request@2.81.0 </tspan>
<tspan x="10" y="474">  │ │ │ ├── aws-sign2@0.6.0 </tspan>
<tspan x="10" y="490">  │ │ │ ├── aws4@1.6.0 </tspan>
<tspan x="10" y="506">  │ │ │ ├── caseless@0.12.0 </tspan>
<tspan x="10" y="522">  │ │ │ ├─┬ combined-stream@1.0.5 </tspan>
<tspan x="10" y="538">  │ │ │ │ └── delayed-stream@1.0.0 </tspan>
<tspan x="10" y="554">  │ │ │ ├── extend@3.0.0 </tspan>
<tspan x="10" y="570">  │ │ │ ├── forever-agent@0.6.1 </tspan>
<tspan x="10" y="586">  │ │ │ ├─┬ form-data@2.1.4 </tspan>
<tspan x="10" y="602">  │ │ │ │ └── asynckit@0.4.0 </tspan>
<tspan x="10" y="618">  │ │ │ ├─┬ har-validator@4.2.1 </tspan>
<tspan x="10" y="634">  │ │ │ │ ├─┬ ajv@4.11.7 </tspan>
<tspan x="10" y="650">  │ │ │ │ │ ├── co@4.6.0 </tspan>
<tspan x="10" y="666">  │ │ │ │ │ └─┬ json-stable-stringify@1.0.1 </tspan>
<tspan x="10" y="682">  │ │ │ │ │   └── jsonify@0.0.0 </tspan>
<tspan x="10" y="698">  │ │ │ │ └── har-schema@1.0.5 </tspan>
<tspan x="10" y="714">  │ │ │ ├─┬ hawk@3.1.3 </tspan>
<tspan x="10" y="730">  │ │ │ │ ├── boom@2.10.1 </tspan>
<tspan x="10" y="746">  │ │ │ │ ├── cryptiles@2.0.5 </tspan>
<tspan x="10" y="762">  │ │ │ │ ├── hoek@2.16.3 </tspan>
<tspan x="10" y="778">  │ │ │ │ └── sntp@1.0.9 </tspan>
<tspan x="10" y="794">  │ │ │ ├─┬ http-signature@1.1.1 </tspan>
<tspan x="10" y="810">  │ │ │ │ ├── assert-plus@0.2.0 </tspan>
<tspan x="10" y="826">  │ │ │ │ ├─┬ jsprim@1.4.0 </tspan>
<tspan x="10" y="842">  │ │ │ │ │ ├── assert-plus@1.0.0 </tspan>
<tspan x="10" y="858">  │ │ │ │ │ ├── extsprintf@1.0.2 </tspan>
<tspan x="10" y="874">  │ │ │ │ │ ├── json-schema@0.2.3 </tspan>
<tspan x="10" y="890">  │ │ │ │ │ └── verror@1.3.6 </tspan>
<tspan x="10" y="906">  │ │ │ │ └─┬ sshpk@1.13.0 </tspan>
<tspan x="10" y="922">  │ │ │ │   ├── asn1@0.2.3 </tspan>
<tspan x="10" y="938">  │ │ │ │   ├── assert-plus@1.0.0 </tspan>
<tspan x="10" y="954">  │ │ │ │   ├── bcrypt-pbkdf@1.0.1 </tspan>
<tspan x="10" y="970">  │ │ │ │   ├─┬ dashdash@1.14.1 </tspan>
<tspan x="10" y="986">  │ │ │ │   │ └── assert-plus@1.0.0 </tspan>
<tspan x="10" y="1002">  │ │ │ │   ├── ecc-jsbn@0.1.1 </tspan>
<tspan x="10" y="1018">  │ │ │ │   ├─┬ getpass@0.1.6 </tspan>
<tspan x="10" y="1034">  │ │ │ │   │ └── assert-plus@1.0.0 </tspan>
<tspan x="10" y="1050">  │ │ │ │   ├── jodid25519@1.0.2 </tspan>
<tspan x="10" y="1066">  │ │ │ │   ├── jsbn@0.1.1 </tspan>
<tspan x="10" y="1082">  │ │ │ │   └── tweetnacl@0.14.5 </tspan>
<tspan x="10" y="1098">  │ │ │ ├── is-typedarray@1.0.0 </tspan>
<tspan x="10" y="1114">  │ │ │ ├── isstream@0.1.2 </tspan>
<tspan x="10" y="1130">  │ │ │ ├── json-stringify-safe@5.0.1 </tspan>
<tspan x="10" y="1146">  │ │ │ ├── oauth-sign@0.8.2 </tspan>
<tspan x="10" y="1162">  │ │ │ ├── performance-now@0.2.0 </tspan>
<tspan x="10" y="1178">  │ │ │ ├── qs@6.4.0 </tspan>
<tspan x="10" y="1194">  │ │ │ ├── safe-buffer@5.0.1 </tspan>
<tspan x="10" y="1210">  │ │ │ ├── stringstream@0.0.5 </tspan>
<tspan x="10" y="1226">  │ │ │ ├─┬ tough-cookie@2.3.2 </tspan>
<tspan x="10" y="1242">  │ │ │ │ └── punycode@1.4.1 </tspan>
<tspan x="10" y="1258">  │ │ │ ├── tunnel-agent@0.6.0 </tspan>
<tspan x="10" y="1274">  │ │ │ └── uuid@3.0.1 </tspan>
<tspan x="10" y="1290">  │ │ └── through@2.3.8 </tspan>
<tspan x="10" y="1306">  │ ├─┬ mime-types@2.1.15 </tspan>
<tspan x="10" y="1322">  │ │ └── mime-db@1.27.0 </tspan>
<tspan x="10" y="1338">  │ ├─┬ ndarray@1.0.18 </tspan>
<tspan x="10" y="1354">  │ │ ├── iota-array@1.0.0 </tspan>
<tspan x="10" y="1370">  │ │ └── is-buffer@1.1.5 </tspan>
<tspan x="10" y="1386">  │ ├─┬ ndarray-fill@1.0.2 </tspan>
<tspan x="10" y="1402">  │ │ └─┬ cwise@1.0.10 </tspan>
<tspan x="10" y="1418">  │ │   ├─┬ cwise-parser@1.0.3 </tspan>
<tspan x="10" y="1434">  │ │   │ └── esprima@1.2.5 </tspan>
<tspan x="10" y="1450">  │ │   ├─┬ static-module@1.3.1 </tspan>
<tspan x="10" y="1466">  │ │   │ ├─┬ concat-stream@1.4.10 </tspan>
<tspan x="10" y="1482">  │ │   │ │ └── readable-stream@1.1.14 </tspan>
<tspan x="10" y="1498">  │ │   │ ├─┬ duplexer2@0.0.2 </tspan>
<tspan x="10" y="1514">  │ │   │ │ └─┬ readable-stream@1.1.14 </tspan>
<tspan x="10" y="1530">  │ │   │ │   └── isarray@0.0.1 </tspan>
<tspan x="10" y="1546">  │ │   │ ├─┬ escodegen@1.3.3 </tspan>
<tspan x="10" y="1562">  │ │   │ │ ├── esprima@1.1.1 </tspan>
<tspan x="10" y="1578">  │ │   │ │ ├── estraverse@1.5.1 </tspan>
<tspan x="10" y="1594">  │ │   │ │ ├── esutils@1.0.0 </tspan>
<tspan x="10" y="1610">  │ │   │ │ └─┬ source-map@0.1.43 </tspan>
<tspan x="10" y="1626">  │ │   │ │   └── amdefine@1.0.1 </tspan>
<tspan x="10" y="1642">  │ │   │ ├─┬ falafel@1.2.0 </tspan>
<tspan x="10" y="1658">  │ │   │ │ ├── acorn@1.2.2 </tspan>
<tspan x="10" y="1674">  │ │   │ │ ├── foreach@2.0.5 </tspan>
<tspan x="10" y="1690">  │ │   │ │ ├── isarray@0.0.1 </tspan>
<tspan x="10" y="1706">  │ │   │ │ └── object-keys@1.0.11 </tspan>
<tspan x="10" y="1722">  │ │   │ ├─┬ has@1.0.1 </tspan>
<tspan x="10" y="1738">  │ │   │ │ └── function-bind@1.1.0 </tspan>
<tspan x="10" y="1754">  │ │   │ ├── object-inspect@0.4.0 </tspan>
<tspan x="10" y="1770">  │ │   │ ├─┬ quote-stream@0.0.0 </tspan>
<tspan x="10" y="1786">  │ │   │ │ ├── minimist@0.0.8 </tspan>
<tspan x="10" y="1802">  │ │   │ │ └─┬ through2@0.4.2 </tspan>
<tspan x="10" y="1818">  │ │   │ │   └─┬ readable-stream@1.0.34 </tspan>
<tspan x="10" y="1834">  │ │   │ │     └── isarray@0.0.1 </tspan>
<tspan x="10" y="1850">  │ │   │ ├─┬ readable-stream@1.0.34 </tspan>
<tspan x="10" y="1866">  │ │   │ │ └── isarray@0.0.1 </tspan>
<tspan x="10" y="1882">  │ │   │ ├── shallow-copy@0.0.1 </tspan>
<tspan x="10" y="1898">  │ │   │ ├─┬ static-eval@0.2.4 </tspan>
<tspan x="10" y="1914">  │ │   │ │ └─┬ escodegen@0.0.28 </tspan>
<tspan x="10" y="1930">  │ │   │ │   ├── esprima@1.0.4 </tspan>
<tspan x="10" y="1946">  │ │   │ │   └── estraverse@1.3.2 </tspan>
<tspan x="10" y="1962">  │ │   │ └─┬ through2@0.4.2 </tspan>
<tspan x="10" y="1978">  │ │   │   └─┬ xtend@2.1.2 </tspan>
<tspan x="10" y="1994">  │ │   │     └── object-keys@0.4.0 </tspan>
<tspan x="10" y="2010">  │ │   └─┬ uglify-js@2.8.22 </tspan>
<tspan x="10" y="2026">  │ │     ├── source-map@0.5.6 </tspan>
<tspan x="10" y="2042">  │ │     ├── uglify-to-browserify@1.0.2 </tspan>
<tspan x="10" y="2058">  │ │     └─┬ yargs@3.10.0 </tspan>
<tspan x="10" y="2074">  │ │       ├── camelcase@1.2.1 </tspan>
<tspan x="10" y="2090">  │ │       ├─┬ cliui@2.1.0 </tspan>
<tspan x="10" y="2106">  │ │       │ ├─┬ center-align@0.1.3 </tspan>
<tspan x="10" y="2122">  │ │       │ │ ├─┬ align-text@0.1.4 </tspan>
<tspan x="10" y="2138">  │ │       │ │ │ ├── kind-of@3.2.0 </tspan>
<tspan x="10" y="2154">  │ │       │ │ │ ├── longest@1.0.1 </tspan>
<tspan x="10" y="2170">  │ │       │ │ │ └── repeat-string@1.6.1 </tspan>
<tspan x="10" y="2186">  │ │       │ │ └── lazy-cache@1.0.4 </tspan>
<tspan x="10" y="2202">  │ │       │ ├── right-align@0.1.3 </tspan>
<tspan x="10" y="2218">  │ │       │ └── wordwrap@0.0.2 </tspan>
<tspan x="10" y="2234">  │ │       ├── decamelize@1.2.0 </tspan>
<tspan x="10" y="2250">  │ │       └── window-size@0.1.0 </tspan>
<tspan x="10" y="2266">  │ ├── obj-extend@0.1.0 </tspan>
<tspan x="10" y="2282">  │ ├─┬ save-pixels@2.3.4 </tspan>
<tspan x="10" y="2298">  │ │ ├─┬ contentstream@1.0.0 </tspan>
<tspan x="10" y="2314">  │ │ │ └─┬ readable-stream@1.0.34 </tspan>
<tspan x="10" y="2330">  │ │ │   └── isarray@0.0.1 </tspan>
<tspan x="10" y="2346">  │ │ ├─┬ gif-encoder@0.4.3 </tspan>
<tspan x="10" y="2362">  │ │ │ └─┬ readable-stream@1.1.14 </tspan>
<tspan x="10" y="2378">  │ │ │   └── isarray@0.0.1 </tspan>
<tspan x="10" y="2394">  │ │ ├── jpeg-js@0.0.4 </tspan>
<tspan x="10" y="2410">  │ │ ├── ndarray-ops@1.2.2 </tspan>
<tspan x="10" y="2426">  │ │ └── pngjs-nozlib@1.0.0 </tspan>
<tspan x="10" y="2442">  │ └─┬ vinyl-file@1.3.0 </tspan>
<tspan x="10" y="2458">  │   ├── graceful-fs@4.1.11 </tspan>
<tspan x="10" y="2474">  │   ├─┬ strip-bom@2.0.0 </tspan>
<tspan x="10" y="2490">  │   │ └── is-utf8@0.2.1 </tspan>
<tspan x="10" y="2506">  │   ├─┬ strip-bom-stream@1.0.0 </tspan>
<tspan x="10" y="2522">  │   │ └── first-chunk-stream@1.0.0 </tspan>
<tspan x="10" y="2538">  │   └─┬ vinyl@1.2.0 </tspan>
<tspan x="10" y="2554">  │     ├── clone@1.0.2 </tspan>
<tspan x="10" y="2570">  │     ├── clone-stats@0.0.1 </tspan>
<tspan x="10" y="2586">  │     └── replace-ext@0.0.1 </tspan>
<tspan x="10" y="2602">  ├── semver@5.0.3 </tspan>
<tspan x="10" y="2618">  └─┬ through2@2.0.3 </tspan>
<tspan x="10" y="2634">    ├─┬ readable-stream@2.2.9 </tspan>
<tspan x="10" y="2650">    │ ├── buffer-shims@1.0.0 </tspan>
<tspan x="10" y="2666">    │ └── string_decoder@1.0.0 </tspan>
<tspan x="10" y="2682">    └── xtend@4.0.1</tspan>
</text>
</svg>
